<?xml version="1.0" encoding="UTF-8" standalone="no"?>
<svg
   xmlns:dc="http://purl.org/dc/elements/1.1/"
   xmlns:cc="http://creativecommons.org/ns#"
   xmlns:rdf="http://www.w3.org/1999/02/22-rdf-syntax-ns#"
   xmlns:svg="http://www.w3.org/2000/svg"
   xmlns="http://www.w3.org/2000/svg"
   xmlns:sodipodi="http://sodipodi.sourceforge.net/DTD/sodipodi-0.dtd"
   xmlns:inkscape="http://www.inkscape.org/namespaces/inkscape"
   x="0px"
   y="0px"
   width="107.35"
   height="107.35"
   viewbox="0 0 144 144"
   version="1.1"
   id="svg1119"
   sodipodi:docname="logo.svg"
   inkscape:version="0.92.1 r15371"
   inkscape:export-filename="/home/zuczek/Pulpit/logo.png"
   inkscape:export-xdpi="228.9334"
   inkscape:export-ydpi="228.9334">
  <metadata
     id="metadata1125">
    <rdf:RDF>
      <cc:Work
         rdf:about="">
        <dc:format>image/svg+xml</dc:format>
        <dc:type
           rdf:resource="http://purl.org/dc/dcmitype/StillImage" />
      </cc:Work>
    </rdf:RDF>
  </metadata>
  <defs
     id="defs1123">
    <inkscape:path-effect
       effect="skeletal"
       id="path-effect1782"
       is_visible="true"
       pattern="M 0,5 C 0,2.24 2.24,0 5,0 7.76,0 10,2.24 10,5 10,7.76 7.76,10 5,10 2.24,10 0,7.76 0,5 Z"
       copytype="single_stretched"
       prop_scale="1"
       scale_y_rel="false"
       spacing="0"
       normal_offset="0"
       tang_offset="0"
       prop_units="false"
       vertical_pattern="false"
       fuse_tolerance="0" />
    <inkscape:path-effect
       effect="spiro"
       id="path-effect1780"
       is_visible="true" />
    <inkscape:path-effect
       effect="skeletal"
       id="path-effect1776"
       is_visible="true"
       pattern="M 0,5 C 0,2.24 2.24,0 5,0 7.76,0 10,2.24 10,5 10,7.76 7.76,10 5,10 2.24,10 0,7.76 0,5 Z"
       copytype="single_stretched"
       prop_scale="1"
       scale_y_rel="false"
       spacing="0"
       normal_offset="0"
       tang_offset="0"
       prop_units="false"
       vertical_pattern="false"
       fuse_tolerance="0" />
    <inkscape:path-effect
       effect="spiro"
       id="path-effect1774"
       is_visible="true" />
    <inkscape:path-effect
       effect="skeletal"
       id="path-effect1770"
       is_visible="true"
       pattern="M 0,5 C 0,2.24 2.24,0 5,0 7.76,0 10,2.24 10,5 10,7.76 7.76,10 5,10 2.24,10 0,7.76 0,5 Z"
       copytype="single_stretched"
       prop_scale="1"
       scale_y_rel="false"
       spacing="0"
       normal_offset="0"
       tang_offset="0"
       prop_units="false"
       vertical_pattern="false"
       fuse_tolerance="0" />
    <inkscape:path-effect
       effect="spiro"
       id="path-effect1768"
       is_visible="true" />
    <inkscape:path-effect
       effect="spiro"
       id="path-effect1760"
       is_visible="true" />
    <inkscape:path-effect
       effect="spiro"
       id="path-effect1758"
       is_visible="true" />
    <inkscape:path-effect
       effect="skeletal"
       id="path-effect1756"
       is_visible="true"
       pattern="M 0,5 C 0,2.24 2.24,0 5,0 7.76,0 10,2.24 10,5 10,7.76 7.76,10 5,10 2.24,10 0,7.76 0,5 Z"
       copytype="single_stretched"
       prop_scale="1"
       scale_y_rel="false"
       spacing="0"
       normal_offset="0"
       tang_offset="0"
       prop_units="false"
       vertical_pattern="false"
       fuse_tolerance="0" />
    <inkscape:path-effect
       effect="skeletal"
       id="path-effect1707"
       is_visible="true"
       pattern="M 0,5 C 0,2.24 2.24,0 5,0 7.76,0 10,2.24 10,5 10,7.76 7.76,10 5,10 2.24,10 0,7.76 0,5 Z"
       copytype="single_stretched"
       prop_scale="1"
       scale_y_rel="false"
       spacing="0"
       normal_offset="0"
       tang_offset="0"
       prop_units="false"
       vertical_pattern="false"
       fuse_tolerance="0" />
    <inkscape:path-effect
       effect="skeletal"
       id="path-effect1135"
       is_visible="true"
       pattern="m -2.1213203,6.1490485 c 0,-2.76 2.23999996,-5 5,-5 2.76,0 5,2.24 5,5 0,2.76 -2.24,5.0000005 -5,5.0000005 -2.76000004,0 -5,-2.2400005 -5,-5.0000005 z"
       copytype="single_stretched"
       prop_scale="1"
       scale_y_rel="false"
       spacing="0"
       normal_offset="0"
       tang_offset="0"
       prop_units="false"
       vertical_pattern="false"
       fuse_tolerance="0" />
    <inkscape:path-effect
       effect="spiro"
       id="path-effect1133"
       is_visible="true" />
  </defs>
  <sodipodi:namedview
     pagecolor="#ffffff"
     bordercolor="#666666"
     borderopacity="1"
     objecttolerance="10"
     gridtolerance="10"
     guidetolerance="10"
     inkscape:pageopacity="0"
     inkscape:pageshadow="2"
     inkscape:window-width="1784"
     inkscape:window-height="1051"
     id="namedview1121"
     showgrid="false"
     inkscape:object-paths="false"
     inkscape:snap-intersection-paths="false"
     inkscape:snap-smooth-nodes="true"
     inkscape:zoom="5.6568543"
     inkscape:cx="56.729991"
     inkscape:cy="59.394993"
     inkscape:window-x="136"
     inkscape:window-y="0"
     inkscape:window-maximized="1"
     inkscape:current-layer="svg1119" />
  <path
     d="m 53.701365,1.3912027 c -0.5055,0 -1.011156,0.222969 -1.285156,0.667968 l -2.720703,4.394532 -1.28125,0.125 -3.523438,-3.779297 c -0.142642,-0.152631 -0.319522,-0.252462 -0.505859,-0.324219 -0.0035,-0.0013 -0.0062,-0.0045 -0.0098,-0.0059 -0.0032,-0.0013 -0.0065,-0.0026 -0.0098,-0.0039 -0.0656,-0.02413 -0.130768,-0.04585 -0.199219,-0.06055 -0.110983,-0.02752 -0.224804,-0.04575 -0.339844,-0.04883 -0.629367,-0.01686 -1.279062,0.324453 -1.507812,0.939453 l -1.804688,4.828125 -1.216797,0.36914 -4.162109,-2.996094 c -0.214708,-0.155094 -0.462586,-0.234014 -0.714844,-0.25 -0.76054,-0.0734 -1.582597,0.438185 -1.710937,1.226563 l -0.830079,5.0917973 -1.128906,0.605469 -4.658203,-2.125 c -0.128566,-0.05876 -0.261844,-0.09176 -0.396484,-0.1074223 -0.878638,-0.13411 -1.826283,0.6070683 -1.791016,1.5292973 l 0.181641,5.166015 -0.992188,0.814453 -5.03125,-1.185546 c -1.022,-0.240001 -2.060312,0.798313 -1.820312,1.820312 l 1.1875,5.03125 -0.816406,0.990234 -5.166016,-0.179687 c -1.052,-0.04 -1.8657339,1.182672 -1.427734,2.138672 l 2.138671,4.695312 -0.611328,1.142578 -5.0898429,0.828125 c -1.03398,0.17 -1.598376,1.526953 -0.984376,2.376954 l 3.011719,4.18164 -0.378906,1.246094 -4.826172,1.80664 c -0.982,0.366001 -1.269953,1.805485 -0.501953,2.521485 l 3.777344,3.523437 -0.125,1.279297 -4.394532,2.720703 c -0.89,0.55 -0.89,2.022313 0,2.570313 l 4.394601,2.720743 0.125,1.279297 -3.775391,3.523437 c -0.768,0.714 -0.482,2.153485 0.5,2.521485 l 4.828125,1.804687 0.376953,1.246094 -3.009765,4.183594 c -0.614,0.852 -0.05162,2.209 0.984375,2.375 l 5.0898429,0.828125 0.611328,1.144531 -2.138671,4.693359 c -0.3886109,0.846426 0.21688,1.902361 1.085937,2.101561 0.124498,0.0332 0.254751,0.0503 0.388672,0.0449 l 5.126953,-0.17773 0.806641,0.98242 -1.185547,5.0332 c -0.210432,0.89445 0.561213,1.80011 1.443359,1.84766 0.139701,0.0126 0.281247,0.008 0.423828,-0.0254 l 5.029297,-1.18359 0.992188,0.8125 -0.179688,5.16796 c -0.04,1.04601 1.184672,1.86374 2.138672,1.42774 l 4.693359,-2.13867 1.142579,0.61328 0.830078,5.087891 c 0.168,1.036 1.526953,1.59633 2.376953,0.98633 l 4.183594,-3.013671 1.246093,0.3789 1.804688,4.826171 c 0.366,0.98 1.807484,1.268 2.521484,0.5 l 3.523438,-3.77539 1.28125,0.12696 2.71875,4.39453 c 0.548,0.886 2.022265,0.888 2.572265,0 l 2.71875,-4.39453 1.28125,-0.12696 3.521485,3.77539 c 0.714,0.768 2.155484,0.48 2.521484,-0.5 l 1.804688,-4.826171 1.246093,-0.3789 4.183594,3.013671 c 0.85,0.61 2.207,0.0477 2.375,-0.98633 l 0.830078,-5.087891 1.144532,-0.61328 4.693359,2.13867 c 0.954,0.436 2.176673,-0.37971 2.138673,-1.42774 l -0.18164,-5.16796 0.99219,-0.8125 5.03125,1.18359 c 1.022,0.24 2.05833,-0.79445 1.81836,-1.81445 l -1.18555,-5.03321 0.81445,-0.99218 5.16602,0.17968 c 1.042,0.042 1.86573,-1.184668 1.42773,-2.138668 l -2.13867,-4.69336 0.61133,-1.144531 5.089843,-0.828125 c 1.036,-0.166 1.59838,-1.523 0.98438,-2.375 l -3.009773,-4.183594 0.37695,-1.246093 4.828133,-1.804688 c 0.982,-0.368 1.268,-1.807484 0.5,-2.521484 l -3.77539,-3.523438 0.125,-1.279297 4.39453,-2.720703 c 0.89,-0.548 0.89,-2.020312 0,-2.570312 l -4.39453,-2.720703 -0.125,-1.279297 3.77734,-3.523438 c 0.768,-0.716 0.48005,-2.155484 -0.50195,-2.521484 l -4.826173,-1.806641 -0.37891,-1.246093 3.011723,-4.181641 c 0.614,-0.85 0.0496,-2.206953 -0.98438,-2.376953 l -5.089843,-0.828125 -0.61133,-1.142578 2.13867,-4.695313 c 0.438,-0.956 -0.37573,-2.178672 -1.42773,-2.138672 l -5.16602,0.179688 -0.8164,-0.990235 1.1875,-5.03125 c 0.24,-1.021999 -0.79831,-2.060312 -1.82031,-1.820312 l -5.03125,1.185547 -0.99219,-0.814453 0.18164,-5.166016 c 0.04,-1.046 -1.184673,-1.8636873 -2.138673,-1.429687 l -4.693359,2.140625 -1.142579,-0.613282 -0.830078,-5.0917963 c -0.168,-1.032002 -1.526953,-1.596373 -2.376953,-0.984376 l -4.183594,3.011719 -1.24414,-0.376953 -1.804688,-4.828125 c -0.366,-0.984 -1.809437,-1.267906 -2.523437,-0.503906 l -3.521485,3.779297 -1.279296,-0.125 -2.720704,-4.394532 c -0.275,-0.445 -0.779656,-0.667968 -1.285156,-0.667968 z m -0.166016,9.2128903 c 1.554001,0 3.107422,1.035423 3.107422,3.107422 0,4.143998 -6.216797,4.143998 -6.216796,0 0,-2.071999 1.555374,-3.107422 3.109374,-3.107422 z m 7.212891,5.119141 c 11.048462,2.069501 20.627452,8.891491 26.195317,18.65625 l -3.66602,8.279297 c -0.633,1.433 0.0124,3.109142 1.44141,3.74414 l 7.05859,3.134766 c 0.0549,0.55195 0.098,1.104639 0.12891,1.658203 0.0928,1.660693 0.0774,3.326958 -0.0469,4.986328 0,0 0.0154,0.04806 0.0156,0.04883 -0.54002,7.226444 -3.17161,14.280115 -7.53711,20.064453 -0.45515,0.599191 -0.9248,1.186846 -1.41407,1.757812 -0.0487,0.05681 -0.0955,0.115366 -0.14453,0.171875 -0.575802,0.66404 -1.172125,1.310318 -1.792966,1.933594 l -6.574218,-1.414063 c -1.531,-0.328 -3.037235,0.645688 -3.365235,2.179688 l -1.558593,7.281253 c -10.151738,4.59847 -21.804934,4.54325 -31.91211,-0.15235 l -1.558594,-7.281247 c -0.328,-1.532 -1.833281,-2.506734 -3.363281,-2.177734 l -6.427734,1.378906 c -0.642251,-0.661456 -1.255264,-1.349248 -1.847607,-2.054688 a 29.344931,32.526913 0 0 1 -0.04492,0.01367 c -0.455296,-0.536065 -0.896532,-1.084067 -1.322266,-1.644531 -4.3655,-5.78434 -6.997089,-12.838009 -7.537109,-20.064453 2e-4,-7.7e-4 0.01563,-0.04883 0.01563,-0.04883 -0.1243,-1.65937 -0.139675,-3.325635 -0.04687,-4.986328 0.03091,-0.553564 0.07401,-1.106253 0.128906,-1.658203 l 7.058594,-3.134766 c 1.42901,-0.634998 2.074406,-2.311141 1.441406,-3.744141 l -3.666027,-8.279294 c 3.054244,-5.356438 7.323008,-9.814269 12.373047,-13.097656 a 29.344931,32.526913 0 0 1 0.02148,0.01758 c 4.16747,-2.719516 8.847922,-4.624426 13.800781,-5.560546 l 4.785156,5.021484 c 1.082,1.133 2.873859,1.174794 4.005859,0.0918 z M 16.738475,38.881437 c 1.554,0 3.109374,1.035424 3.109374,3.107422 0,4.144002 -6.216796,4.144 -6.216796,0 0,-2.071999 1.553421,-3.107422 3.107422,-3.107422 z m 73.873042,0.0078 c 1.554,0 3.10743,1.035422 3.10743,3.107421 0,4.144 -6.2168,4.144002 -6.2168,0 0,-2.071998 1.55537,-3.107421 3.10937,-3.107421 z m -60.103511,43.65039 c 1.554,0 3.109375,1.037379 3.109375,3.109379 0,4.144 -6.216797,4.144 -6.216797,0 0,-2.072 1.553422,-3.109379 3.107422,-3.109379 z m 46.052734,0.146489 c 1.554,0 3.107422,1.03542 3.107422,3.10742 0,4.144 -6.216797,4.144 -6.216797,0 0,-2.072 1.555375,-3.10742 3.109375,-3.10742 z"
     id="path1117"
     inkscape:connector-curvature="0" />
  <path
     inkscape:connector-curvature="0"
     id="Zaznaczenie"
     d="m 64.447527,18.219526 c -2.157842,0.01812 -4.466947,1.72879 -5.037858,4.342529 -0.642652,2.942163 0.181975,5.411021 1.483522,8.207186 2.247661,4.828729 4.260917,13.317291 0.162,17.440002 -0.825298,0.830089 -2.656422,0.787057 -3.511505,-0.01231 -0.49785,-0.465427 -0.571644,-1.508164 -0.144712,-2.039398 1.42078,-1.767874 2.472243,-5.002434 2.451904,-7.694135 -0.01805,-2.393781 0.08156,-5.1468 -2.283595,-6.808867 -1.428494,-1.003847 -2.714325,-1.316613 -3.891101,-1.265927 -0.0082,3.08e-4 -0.01636,0.0013 -0.02463,0.002 v 0.0063 c -1.170769,-0.04584 -2.449314,0.26897 -3.868861,1.266534 -2.365151,1.66206 -2.265511,4.41508 -2.283596,6.80886 -0.02033,2.691707 1.031118,5.926261 2.451903,7.694142 0.426934,0.531229 0.35314,1.57397 -0.144711,2.039399 -0.855082,0.799375 -2.686208,0.842408 -3.511505,0.01231 -4.098916,-4.122709 -2.085661,-12.611273 0.162,-17.439996 1.301546,-2.796171 2.126173,-5.265029 1.483523,-8.207186 -0.570912,-2.613745 -2.880018,-4.324413 -5.037857,-4.342535 -0.308265,-0.0025 -0.613491,0.02929 -0.910073,0.09813 -5.123861,1.188639 -5.139229,5.972879 -0.803229,8.024753 -2.039024,-3.725794 -0.422287,-5.978853 2.535308,-4.945141 2.671301,0.933644 -0.252799,7.463141 -0.829369,8.448677 -2.175867,3.686511 -5.239165,7.564536 -5.382443,11.92261 -0.104413,3.175799 1.778819,6.483157 3.343192,8.92716 -3.102269,1.765074 -6.295188,0.523873 -7.01234,-2.005135 -1.0148,-3.578682 0.890537,-10.32505 0.48389,-13.676936 -0.592274,-4.882053 -5.172883,-5.795971 -7.401999,-4.958361 -5.738689,2.156356 -5.953059,7.736978 0.661662,10.209459 0,0 -5.145806,-5.256106 -0.594643,-6.337295 2.971849,-0.706001 5.004526,3.203323 1.727428,12.644384 -1.629132,4.693426 1.000973,9.188585 4.214046,10.276341 3.438775,1.164167 5.812704,0.783062 8.436652,-0.124131 -0.527312,1.524426 -3.127602,4.905113 -7.092882,4.844603 -5.999911,-0.09155 -9.089849,-4.943504 -14.076827,-1.86252 -5.870083,3.626582 0.519799,13.177133 5.061606,8.274805 -4.412389,0.142961 -4.240641,-2.186565 -3.658627,-3.653058 0.734068,-1.849621 3.264489,-1.661929 5.57465,-0.07484 7.038832,4.835701 16.518506,-0.271248 16.518506,-0.271248 0,0 -2.086615,5.07796 -3.302318,7.024663 -8.387706,14.116365 5.161543,20.835025 9.876899,13.802565 1.689257,-2.51934 -0.856794,-5.752971 -2.89672,-5.994366 l 0.55091,0.517099 c 4.997339,4.692047 -11.521906,9.612047 -4.487695,-4.920789 3.159856,-4.517985 7.136648,-7.383057 10.260404,-7.394044 v -0.0078 c 3.116608,0.03921 7.069419,2.897825 10.21352,7.393294 7.034213,14.532826 -9.485035,9.612836 -4.487694,4.920786 l 0.550909,-0.517111 c -2.039927,0.241394 -4.585975,3.475031 -2.896718,5.994381 4.715356,7.03247 18.264597,0.31379 9.876899,-13.802566 -1.215704,-1.946704 -3.302319,-7.024658 -3.302319,-7.024658 0,0 9.479674,5.106943 16.518507,0.271243 2.310158,-1.587084 4.840577,-1.774777 5.574647,0.07484 0.58201,1.466494 0.75376,3.796021 -3.658611,3.653057 4.541791,4.90233 10.931661,-4.648222 5.061581,-8.274804 -4.98696,-3.080984 -8.076904,1.770963 -14.076816,1.86252 -3.965287,0.0605 -6.56557,-3.320175 -7.092883,-4.844604 2.623949,0.907195 4.997877,1.2883 8.436654,0.124126 3.213073,-1.087756 5.843178,-5.582914 4.214046,-10.276335 -3.277099,-9.441061 -1.244428,-13.350386 1.727427,-12.644384 4.551142,1.081185 -0.594643,6.337296 -0.594643,6.337296 6.614725,-2.472481 6.400345,-8.053104 0.661669,-10.209459 -2.229123,-0.837617 -6.809733,0.07632 -7.402012,4.958361 -0.406642,3.351885 1.498689,10.098253 0.483895,13.676936 -0.717154,2.529013 -3.910071,3.770207 -7.012338,2.005134 1.564372,-2.444003 3.447598,-5.75136 3.34319,-8.92716 -0.143277,-4.358074 -3.206574,-8.236097 -5.382441,-11.92261 -0.576572,-0.985535 -3.50067,-7.515032 -0.829377,-8.448675 2.957602,-1.033714 4.574339,1.219347 2.535315,4.945139 4.336,-2.051874 4.32063,-6.836112 -0.803229,-8.024753 -0.296581,-0.0688 -0.601809,-0.100718 -0.910073,-0.09813 z"
     style="fill:#000000;fill-opacity:1;stroke:none;stroke-width:0.10258838" />
</svg>
